<svg width="1200" height="630" xmlns="http://www.w3.org/2000/svg">
  <defs>
    <filter id="glow">
      <feGaussianBlur stdDeviation="3" result="blur"/>
      <feMerge>
        <feMergeNode in="blur"/>
        <feMergeNode in="SourceGraphic"/>
      </feMerge>
    </filter>
  </defs>
  
  <!-- Background -->
  <rect width="1200" height="630" fill="#000000"/>
  
  <!-- Scanlines -->
  <rect x="0" y="0" width="1200" height="1" fill="rgba(0,0,0,0.15)"/>
  <rect x="0" y="2" width="1200" height="1" fill="rgba(0,0,0,0.15)"/>
  <rect x="0" y="4" width="1200" height="1" fill="rgba(0,0,0,0.15)"/>
  <rect x="0" y="6" width="1200" height="1" fill="rgba(0,0,0,0.15)"/>
  <rect x="0" y="8" width="1200" height="1" fill="rgba(0,0,0,0.15)"/>
  <rect x="0" y="10" width="1200" height="1" fill="rgba(0,0,0,0.15)"/>
  <rect x="0" y="12" width="1200" height="1" fill="rgba(0,0,0,0.15)"/>
  <rect x="0" y="14" width="1200" height="1" fill="rgba(0,0,0,0.15)"/>
  <rect x="0" y="16" width="1200" height="1" fill="rgba(0,0,0,0.15)"/>
  <rect x="0" y="18" width="1200" height="1" fill="rgba(0,0,0,0.15)"/>
  <rect x="0" y="20" width="1200" height="1" fill="rgba(0,0,0,0.15)"/>
  <rect x="0" y="22" width="1200" height="1" fill="rgba(0,0,0,0.15)"/>
  <rect x="0" y="24" width="1200" height="1" fill="rgba(0,0,0,0.15)"/>
  <rect x="0" y="26" width="1200" height="1" fill="rgba(0,0,0,0.15)"/>
  <rect x="0" y="28" width="1200" height="1" fill="rgba(0,0,0,0.15)"/>
  <rect x="0" y="30" width="1200" height="1" fill="rgba(0,0,0,0.15)"/>
  <rect x="0" y="32" width="1200" height="1" fill="rgba(0,0,0,0.15)"/>
  <rect x="0" y="34" width="1200" height="1" fill="rgba(0,0,0,0.15)"/>
  <rect x="0" y="36" width="1200" height="1" fill="rgba(0,0,0,0.15)"/>
  <rect x="0" y="38" width="1200" height="1" fill="rgba(0,0,0,0.15)"/>
  <rect x="0" y="40" width="1200" height="1" fill="rgba(0,0,0,0.15)"/>
  <rect x="0" y="42" width="1200" height="1" fill="rgba(0,0,0,0.15)"/>
  <rect x="0" y="44" width="1200" height="1" fill="rgba(0,0,0,0.15)"/>
  <rect x="0" y="46" width="1200" height="1" fill="rgba(0,0,0,0.15)"/>
  <rect x="0" y="48" width="1200" height="1" fill="rgba(0,0,0,0.15)"/>
  <rect x="0" y="50" width="1200" height="1" fill="rgba(0,0,0,0.15)"/>
  <rect x="0" y="52" width="1200" height="1" fill="rgba(0,0,0,0.15)"/>
  <rect x="0" y="54" width="1200" height="1" fill="rgba(0,0,0,0.15)"/>
  <rect x="0" y="56" width="1200" height="1" fill="rgba(0,0,0,0.15)"/>
  <rect x="0" y="58" width="1200" height="1" fill="rgba(0,0,0,0.15)"/>
  <rect x="0" y="60" width="1200" height="1" fill="rgba(0,0,0,0.15)"/>
  <rect x="0" y="62" width="1200" height="1" fill="rgba(0,0,0,0.15)"/>
  <rect x="0" y="64" width="1200" height="1" fill="rgba(0,0,0,0.15)"/>
  <rect x="0" y="66" width="1200" height="1" fill="rgba(0,0,0,0.15)"/>
  <rect x="0" y="68" width="1200" height="1" fill="rgba(0,0,0,0.15)"/>
  <rect x="0" y="70" width="1200" height="1" fill="rgba(0,0,0,0.15)"/>
  <rect x="0" y="72" width="1200" height="1" fill="rgba(0,0,0,0.15)"/>
  <rect x="0" y="74" width="1200" height="1" fill="rgba(0,0,0,0.15)"/>
  <rect x="0" y="76" width="1200" height="1" fill="rgba(0,0,0,0.15)"/>
  <rect x="0" y="78" width="1200" height="1" fill="rgba(0,0,0,0.15)"/>
  <rect x="0" y="80" width="1200" height="1" fill="rgba(0,0,0,0.15)"/>
  <rect x="0" y="82" width="1200" height="1" fill="rgba(0,0,0,0.15)"/>
  <rect x="0" y="84" width="1200" height="1" fill="rgba(0,0,0,0.15)"/>
  <rect x="0" y="86" width="1200" height="1" fill="rgba(0,0,0,0.15)"/>
  <rect x="0" y="88" width="1200" height="1" fill="rgba(0,0,0,0.15)"/>
  <rect x="0" y="90" width="1200" height="1" fill="rgba(0,0,0,0.15)"/>
  <rect x="0" y="92" width="1200" height="1" fill="rgba(0,0,0,0.15)"/>
  <rect x="0" y="94" width="1200" height="1" fill="rgba(0,0,0,0.15)"/>
  <rect x="0" y="96" width="1200" height="1" fill="rgba(0,0,0,0.15)"/>
  <rect x="0" y="98" width="1200" height="1" fill="rgba(0,0,0,0.15)"/>
  <rect x="0" y="100" width="1200" height="1" fill="rgba(0,0,0,0.15)"/>
  <rect x="0" y="102" width="1200" height="1" fill="rgba(0,0,0,0.15)"/>
  <rect x="0" y="104" width="1200" height="1" fill="rgba(0,0,0,0.15)"/>
  <rect x="0" y="106" width="1200" height="1" fill="rgba(0,0,0,0.15)"/>
  <rect x="0" y="108" width="1200" height="1" fill="rgba(0,0,0,0.15)"/>
  <rect x="0" y="110" width="1200" height="1" fill="rgba(0,0,0,0.15)"/>
  <rect x="0" y="112" width="1200" height="1" fill="rgba(0,0,0,0.15)"/>
  <rect x="0" y="114" width="1200" height="1" fill="rgba(0,0,0,0.15)"/>
  <rect x="0" y="116" width="1200" height="1" fill="rgba(0,0,0,0.15)"/>
  <rect x="0" y="118" width="1200" height="1" fill="rgba(0,0,0,0.15)"/>
  <rect x="0" y="120" width="1200" height="1" fill="rgba(0,0,0,0.15)"/>
  <rect x="0" y="122" width="1200" height="1" fill="rgba(0,0,0,0.15)"/>
  <rect x="0" y="124" width="1200" height="1" fill="rgba(0,0,0,0.15)"/>
  <rect x="0" y="126" width="1200" height="1" fill="rgba(0,0,0,0.15)"/>
  <rect x="0" y="128" width="1200" height="1" fill="rgba(0,0,0,0.15)"/>
  <rect x="0" y="130" width="1200" height="1" fill="rgba(0,0,0,0.15)"/>
  <rect x="0" y="132" width="1200" height="1" fill="rgba(0,0,0,0.15)"/>
  <rect x="0" y="134" width="1200" height="1" fill="rgba(0,0,0,0.15)"/>
  <rect x="0" y="136" width="1200" height="1" fill="rgba(0,0,0,0.15)"/>
  <rect x="0" y="138" width="1200" height="1" fill="rgba(0,0,0,0.15)"/>
  <rect x="0" y="140" width="1200" height="1" fill="rgba(0,0,0,0.15)"/>
  <rect x="0" y="142" width="1200" height="1" fill="rgba(0,0,0,0.15)"/>
  <rect x="0" y="144" width="1200" height="1" fill="rgba(0,0,0,0.15)"/>
  <rect x="0" y="146" width="1200" height="1" fill="rgba(0,0,0,0.15)"/>
  <rect x="0" y="148" width="1200" height="1" fill="rgba(0,0,0,0.15)"/>
  <rect x="0" y="150" width="1200" height="1" fill="rgba(0,0,0,0.15)"/>
  <rect x="0" y="152" width="1200" height="1" fill="rgba(0,0,0,0.15)"/>
  <rect x="0" y="154" width="1200" height="1" fill="rgba(0,0,0,0.15)"/>
  <rect x="0" y="156" width="1200" height="1" fill="rgba(0,0,0,0.15)"/>
  <rect x="0" y="158" width="1200" height="1" fill="rgba(0,0,0,0.15)"/>
  <rect x="0" y="160" width="1200" height="1" fill="rgba(0,0,0,0.15)"/>
  <rect x="0" y="162" width="1200" height="1" fill="rgba(0,0,0,0.15)"/>
  <rect x="0" y="164" width="1200" height="1" fill="rgba(0,0,0,0.15)"/>
  <rect x="0" y="166" width="1200" height="1" fill="rgba(0,0,0,0.15)"/>
  <rect x="0" y="168" width="1200" height="1" fill="rgba(0,0,0,0.15)"/>
  <rect x="0" y="170" width="1200" height="1" fill="rgba(0,0,0,0.15)"/>
  <rect x="0" y="172" width="1200" height="1" fill="rgba(0,0,0,0.15)"/>
  <rect x="0" y="174" width="1200" height="1" fill="rgba(0,0,0,0.15)"/>
  <rect x="0" y="176" width="1200" height="1" fill="rgba(0,0,0,0.15)"/>
  <rect x="0" y="178" width="1200" height="1" fill="rgba(0,0,0,0.15)"/>
  <rect x="0" y="180" width="1200" height="1" fill="rgba(0,0,0,0.15)"/>
  <rect x="0" y="182" width="1200" height="1" fill="rgba(0,0,0,0.15)"/>
  <rect x="0" y="184" width="1200" height="1" fill="rgba(0,0,0,0.15)"/>
  <rect x="0" y="186" width="1200" height="1" fill="rgba(0,0,0,0.15)"/>
  <rect x="0" y="188" width="1200" height="1" fill="rgba(0,0,0,0.15)"/>
  <rect x="0" y="190" width="1200" height="1" fill="rgba(0,0,0,0.15)"/>
  <rect x="0" y="192" width="1200" height="1" fill="rgba(0,0,0,0.15)"/>
  <rect x="0" y="194" width="1200" height="1" fill="rgba(0,0,0,0.15)"/>
  <rect x="0" y="196" width="1200" height="1" fill="rgba(0,0,0,0.15)"/>
  <rect x="0" y="198" width="1200" height="1" fill="rgba(0,0,0,0.15)"/>
  <rect x="0" y="200" width="1200" height="1" fill="rgba(0,0,0,0.15)"/>
  <rect x="0" y="202" width="1200" height="1" fill="rgba(0,0,0,0.15)"/>
  <rect x="0" y="204" width="1200" height="1" fill="rgba(0,0,0,0.15)"/>
  <rect x="0" y="206" width="1200" height="1" fill="rgba(0,0,0,0.15)"/>
  <rect x="0" y="208" width="1200" height="1" fill="rgba(0,0,0,0.15)"/>
  <rect x="0" y="210" width="1200" height="1" fill="rgba(0,0,0,0.15)"/>
  <rect x="0" y="212" width="1200" height="1" fill="rgba(0,0,0,0.15)"/>
  <rect x="0" y="214" width="1200" height="1" fill="rgba(0,0,0,0.15)"/>
  <rect x="0" y="216" width="1200" height="1" fill="rgba(0,0,0,0.15)"/>
  <rect x="0" y="218" width="1200" height="1" fill="rgba(0,0,0,0.15)"/>
  <rect x="0" y="220" width="1200" height="1" fill="rgba(0,0,0,0.15)"/>
  <rect x="0" y="222" width="1200" height="1" fill="rgba(0,0,0,0.15)"/>
  <rect x="0" y="224" width="1200" height="1" fill="rgba(0,0,0,0.15)"/>
  <rect x="0" y="226" width="1200" height="1" fill="rgba(0,0,0,0.15)"/>
  <rect x="0" y="228" width="1200" height="1" fill="rgba(0,0,0,0.15)"/>
  <rect x="0" y="230" width="1200" height="1" fill="rgba(0,0,0,0.15)"/>
  <rect x="0" y="232" width="1200" height="1" fill="rgba(0,0,0,0.15)"/>
  <rect x="0" y="234" width="1200" height="1" fill="rgba(0,0,0,0.15)"/>
  <rect x="0" y="236" width="1200" height="1" fill="rgba(0,0,0,0.15)"/>
  <rect x="0" y="238" width="1200" height="1" fill="rgba(0,0,0,0.15)"/>
  <rect x="0" y="240" width="1200" height="1" fill="rgba(0,0,0,0.15)"/>
  <rect x="0" y="242" width="1200" height="1" fill="rgba(0,0,0,0.15)"/>
  <rect x="0" y="244" width="1200" height="1" fill="rgba(0,0,0,0.15)"/>
  <rect x="0" y="246" width="1200" height="1" fill="rgba(0,0,0,0.15)"/>
  <rect x="0" y="248" width="1200" height="1" fill="rgba(0,0,0,0.15)"/>
  <rect x="0" y="250" width="1200" height="1" fill="rgba(0,0,0,0.15)"/>
  <rect x="0" y="252" width="1200" height="1" fill="rgba(0,0,0,0.15)"/>
  <rect x="0" y="254" width="1200" height="1" fill="rgba(0,0,0,0.15)"/>
  <rect x="0" y="256" width="1200" height="1" fill="rgba(0,0,0,0.15)"/>
  <rect x="0" y="258" width="1200" height="1" fill="rgba(0,0,0,0.15)"/>
  <rect x="0" y="260" width="1200" height="1" fill="rgba(0,0,0,0.15)"/>
  <rect x="0" y="262" width="1200" height="1" fill="rgba(0,0,0,0.15)"/>
  <rect x="0" y="264" width="1200" height="1" fill="rgba(0,0,0,0.15)"/>
  <rect x="0" y="266" width="1200" height="1" fill="rgba(0,0,0,0.15)"/>
  <rect x="0" y="268" width="1200" height="1" fill="rgba(0,0,0,0.15)"/>
  <rect x="0" y="270" width="1200" height="1" fill="rgba(0,0,0,0.15)"/>
  <rect x="0" y="272" width="1200" height="1" fill="rgba(0,0,0,0.15)"/>
  <rect x="0" y="274" width="1200" height="1" fill="rgba(0,0,0,0.15)"/>
  <rect x="0" y="276" width="1200" height="1" fill="rgba(0,0,0,0.15)"/>
  <rect x="0" y="278" width="1200" height="1" fill="rgba(0,0,0,0.15)"/>
  <rect x="0" y="280" width="1200" height="1" fill="rgba(0,0,0,0.15)"/>
  <rect x="0" y="282" width="1200" height="1" fill="rgba(0,0,0,0.15)"/>
  <rect x="0" y="284" width="1200" height="1" fill="rgba(0,0,0,0.15)"/>
  <rect x="0" y="286" width="1200" height="1" fill="rgba(0,0,0,0.15)"/>
  <rect x="0" y="288" width="1200" height="1" fill="rgba(0,0,0,0.15)"/>
  <rect x="0" y="290" width="1200" height="1" fill="rgba(0,0,0,0.15)"/>
  <rect x="0" y="292" width="1200" height="1" fill="rgba(0,0,0,0.15)"/>
  <rect x="0" y="294" width="1200" height="1" fill="rgba(0,0,0,0.15)"/>
  <rect x="0" y="296" width="1200" height="1" fill="rgba(0,0,0,0.15)"/>
  <rect x="0" y="298" width="1200" height="1" fill="rgba(0,0,0,0.15)"/>
  <rect x="0" y="300" width="1200" height="1" fill="rgba(0,0,0,0.15)"/>
  <rect x="0" y="302" width="1200" height="1" fill="rgba(0,0,0,0.15)"/>
  <rect x="0" y="304" width="1200" height="1" fill="rgba(0,0,0,0.15)"/>
  <rect x="0" y="306" width="1200" height="1" fill="rgba(0,0,0,0.15)"/>
  <rect x="0" y="308" width="1200" height="1" fill="rgba(0,0,0,0.15)"/>
  <rect x="0" y="310" width="1200" height="1" fill="rgba(0,0,0,0.15)"/>
  <rect x="0" y="312" width="1200" height="1" fill="rgba(0,0,0,0.15)"/>
  <rect x="0" y="314" width="1200" height="1" fill="rgba(0,0,0,0.15)"/>
  <rect x="0" y="316" width="1200" height="1" fill="rgba(0,0,0,0.15)"/>
  <rect x="0" y="318" width="1200" height="1" fill="rgba(0,0,0,0.15)"/>
  <rect x="0" y="320" width="1200" height="1" fill="rgba(0,0,0,0.15)"/>
  <rect x="0" y="322" width="1200" height="1" fill="rgba(0,0,0,0.15)"/>
  <rect x="0" y="324" width="1200" height="1" fill="rgba(0,0,0,0.15)"/>
  <rect x="0" y="326" width="1200" height="1" fill="rgba(0,0,0,0.15)"/>
  <rect x="0" y="328" width="1200" height="1" fill="rgba(0,0,0,0.15)"/>
  <rect x="0" y="330" width="1200" height="1" fill="rgba(0,0,0,0.15)"/>
  <rect x="0" y="332" width="1200" height="1" fill="rgba(0,0,0,0.15)"/>
  <rect x="0" y="334" width="1200" height="1" fill="rgba(0,0,0,0.15)"/>
  <rect x="0" y="336" width="1200" height="1" fill="rgba(0,0,0,0.15)"/>
  <rect x="0" y="338" width="1200" height="1" fill="rgba(0,0,0,0.15)"/>
  <rect x="0" y="340" width="1200" height="1" fill="rgba(0,0,0,0.15)"/>
  <rect x="0" y="342" width="1200" height="1" fill="rgba(0,0,0,0.15)"/>
  <rect x="0" y="344" width="1200" height="1" fill="rgba(0,0,0,0.15)"/>
  <rect x="0" y="346" width="1200" height="1" fill="rgba(0,0,0,0.15)"/>
  <rect x="0" y="348" width="1200" height="1" fill="rgba(0,0,0,0.15)"/>
  <rect x="0" y="350" width="1200" height="1" fill="rgba(0,0,0,0.15)"/>
  <rect x="0" y="352" width="1200" height="1" fill="rgba(0,0,0,0.15)"/>
  <rect x="0" y="354" width="1200" height="1" fill="rgba(0,0,0,0.15)"/>
  <rect x="0" y="356" width="1200" height="1" fill="rgba(0,0,0,0.15)"/>
  <rect x="0" y="358" width="1200" height="1" fill="rgba(0,0,0,0.15)"/>
  <rect x="0" y="360" width="1200" height="1" fill="rgba(0,0,0,0.15)"/>
  <rect x="0" y="362" width="1200" height="1" fill="rgba(0,0,0,0.15)"/>
  <rect x="0" y="364" width="1200" height="1" fill="rgba(0,0,0,0.15)"/>
  <rect x="0" y="366" width="1200" height="1" fill="rgba(0,0,0,0.15)"/>
  <rect x="0" y="368" width="1200" height="1" fill="rgba(0,0,0,0.15)"/>
  <rect x="0" y="370" width="1200" height="1" fill="rgba(0,0,0,0.15)"/>
  <rect x="0" y="372" width="1200" height="1" fill="rgba(0,0,0,0.15)"/>
  <rect x="0" y="374" width="1200" height="1" fill="rgba(0,0,0,0.15)"/>
  <rect x="0" y="376" width="1200" height="1" fill="rgba(0,0,0,0.15)"/>
  <rect x="0" y="378" width="1200" height="1" fill="rgba(0,0,0,0.15)"/>
  <rect x="0" y="380" width="1200" height="1" fill="rgba(0,0,0,0.15)"/>
  <rect x="0" y="382" width="1200" height="1" fill="rgba(0,0,0,0.15)"/>
  <rect x="0" y="384" width="1200" height="1" fill="rgba(0,0,0,0.15)"/>
  <rect x="0" y="386" width="1200" height="1" fill="rgba(0,0,0,0.15)"/>
  <rect x="0" y="388" width="1200" height="1" fill="rgba(0,0,0,0.15)"/>
  <rect x="0" y="390" width="1200" height="1" fill="rgba(0,0,0,0.15)"/>
  <rect x="0" y="392" width="1200" height="1" fill="rgba(0,0,0,0.15)"/>
  <rect x="0" y="394" width="1200" height="1" fill="rgba(0,0,0,0.15)"/>
  <rect x="0" y="396" width="1200" height="1" fill="rgba(0,0,0,0.15)"/>
  <rect x="0" y="398" width="1200" height="1" fill="rgba(0,0,0,0.15)"/>
  <rect x="0" y="400" width="1200" height="1" fill="rgba(0,0,0,0.15)"/>
  <rect x="0" y="402" width="1200" height="1" fill="rgba(0,0,0,0.15)"/>
  <rect x="0" y="404" width="1200" height="1" fill="rgba(0,0,0,0.15)"/>
  <rect x="0" y="406" width="1200" height="1" fill="rgba(0,0,0,0.15)"/>
  <rect x="0" y="408" width="1200" height="1" fill="rgba(0,0,0,0.15)"/>
  <rect x="0" y="410" width="1200" height="1" fill="rgba(0,0,0,0.15)"/>
  <rect x="0" y="412" width="1200" height="1" fill="rgba(0,0,0,0.15)"/>
  <rect x="0" y="414" width="1200" height="1" fill="rgba(0,0,0,0.15)"/>
  <rect x="0" y="416" width="1200" height="1" fill="rgba(0,0,0,0.15)"/>
  <rect x="0" y="418" width="1200" height="1" fill="rgba(0,0,0,0.15)"/>
  <rect x="0" y="420" width="1200" height="1" fill="rgba(0,0,0,0.15)"/>
  <rect x="0" y="422" width="1200" height="1" fill="rgba(0,0,0,0.15)"/>
  <rect x="0" y="424" width="1200" height="1" fill="rgba(0,0,0,0.15)"/>
  <rect x="0" y="426" width="1200" height="1" fill="rgba(0,0,0,0.15)"/>
  <rect x="0" y="428" width="1200" height="1" fill="rgba(0,0,0,0.15)"/>
  <rect x="0" y="430" width="1200" height="1" fill="rgba(0,0,0,0.15)"/>
  <rect x="0" y="432" width="1200" height="1" fill="rgba(0,0,0,0.15)"/>
  <rect x="0" y="434" width="1200" height="1" fill="rgba(0,0,0,0.15)"/>
  <rect x="0" y="436" width="1200" height="1" fill="rgba(0,0,0,0.15)"/>
  <rect x="0" y="438" width="1200" height="1" fill="rgba(0,0,0,0.15)"/>
  <rect x="0" y="440" width="1200" height="1" fill="rgba(0,0,0,0.15)"/>
  <rect x="0" y="442" width="1200" height="1" fill="rgba(0,0,0,0.15)"/>
  <rect x="0" y="444" width="1200" height="1" fill="rgba(0,0,0,0.15)"/>
  <rect x="0" y="446" width="1200" height="1" fill="rgba(0,0,0,0.15)"/>
  <rect x="0" y="448" width="1200" height="1" fill="rgba(0,0,0,0.15)"/>
  <rect x="0" y="450" width="1200" height="1" fill="rgba(0,0,0,0.15)"/>
  <rect x="0" y="452" width="1200" height="1" fill="rgba(0,0,0,0.15)"/>
  <rect x="0" y="454" width="1200" height="1" fill="rgba(0,0,0,0.15)"/>
  <rect x="0" y="456" width="1200" height="1" fill="rgba(0,0,0,0.15)"/>
  <rect x="0" y="458" width="1200" height="1" fill="rgba(0,0,0,0.15)"/>
  <rect x="0" y="460" width="1200" height="1" fill="rgba(0,0,0,0.15)"/>
  <rect x="0" y="462" width="1200" height="1" fill="rgba(0,0,0,0.15)"/>
  <rect x="0" y="464" width="1200" height="1" fill="rgba(0,0,0,0.15)"/>
  <rect x="0" y="466" width="1200" height="1" fill="rgba(0,0,0,0.15)"/>
  <rect x="0" y="468" width="1200" height="1" fill="rgba(0,0,0,0.15)"/>
  <rect x="0" y="470" width="1200" height="1" fill="rgba(0,0,0,0.15)"/>
  <rect x="0" y="472" width="1200" height="1" fill="rgba(0,0,0,0.15)"/>
  <rect x="0" y="474" width="1200" height="1" fill="rgba(0,0,0,0.15)"/>
  <rect x="0" y="476" width="1200" height="1" fill="rgba(0,0,0,0.15)"/>
  <rect x="0" y="478" width="1200" height="1" fill="rgba(0,0,0,0.15)"/>
  <rect x="0" y="480" width="1200" height="1" fill="rgba(0,0,0,0.15)"/>
  <rect x="0" y="482" width="1200" height="1" fill="rgba(0,0,0,0.15)"/>
  <rect x="0" y="484" width="1200" height="1" fill="rgba(0,0,0,0.15)"/>
  <rect x="0" y="486" width="1200" height="1" fill="rgba(0,0,0,0.15)"/>
  <rect x="0" y="488" width="1200" height="1" fill="rgba(0,0,0,0.15)"/>
  <rect x="0" y="490" width="1200" height="1" fill="rgba(0,0,0,0.15)"/>
  <rect x="0" y="492" width="1200" height="1" fill="rgba(0,0,0,0.15)"/>
  <rect x="0" y="494" width="1200" height="1" fill="rgba(0,0,0,0.15)"/>
  <rect x="0" y="496" width="1200" height="1" fill="rgba(0,0,0,0.15)"/>
  <rect x="0" y="498" width="1200" height="1" fill="rgba(0,0,0,0.15)"/>
  <rect x="0" y="500" width="1200" height="1" fill="rgba(0,0,0,0.15)"/>
  <rect x="0" y="502" width="1200" height="1" fill="rgba(0,0,0,0.15)"/>
  <rect x="0" y="504" width="1200" height="1" fill="rgba(0,0,0,0.15)"/>
  <rect x="0" y="506" width="1200" height="1" fill="rgba(0,0,0,0.15)"/>
  <rect x="0" y="508" width="1200" height="1" fill="rgba(0,0,0,0.15)"/>
  <rect x="0" y="510" width="1200" height="1" fill="rgba(0,0,0,0.15)"/>
  <rect x="0" y="512" width="1200" height="1" fill="rgba(0,0,0,0.15)"/>
  <rect x="0" y="514" width="1200" height="1" fill="rgba(0,0,0,0.15)"/>
  <rect x="0" y="516" width="1200" height="1" fill="rgba(0,0,0,0.15)"/>
  <rect x="0" y="518" width="1200" height="1" fill="rgba(0,0,0,0.15)"/>
  <rect x="0" y="520" width="1200" height="1" fill="rgba(0,0,0,0.15)"/>
  <rect x="0" y="522" width="1200" height="1" fill="rgba(0,0,0,0.15)"/>
  <rect x="0" y="524" width="1200" height="1" fill="rgba(0,0,0,0.15)"/>
  <rect x="0" y="526" width="1200" height="1" fill="rgba(0,0,0,0.15)"/>
  <rect x="0" y="528" width="1200" height="1" fill="rgba(0,0,0,0.15)"/>
  <rect x="0" y="530" width="1200" height="1" fill="rgba(0,0,0,0.15)"/>
  <rect x="0" y="532" width="1200" height="1" fill="rgba(0,0,0,0.15)"/>
  <rect x="0" y="534" width="1200" height="1" fill="rgba(0,0,0,0.15)"/>
  <rect x="0" y="536" width="1200" height="1" fill="rgba(0,0,0,0.15)"/>
  <rect x="0" y="538" width="1200" height="1" fill="rgba(0,0,0,0.15)"/>
  <rect x="0" y="540" width="1200" height="1" fill="rgba(0,0,0,0.15)"/>
  <rect x="0" y="542" width="1200" height="1" fill="rgba(0,0,0,0.15)"/>
  <rect x="0" y="544" width="1200" height="1" fill="rgba(0,0,0,0.15)"/>
  <rect x="0" y="546" width="1200" height="1" fill="rgba(0,0,0,0.15)"/>
  <rect x="0" y="548" width="1200" height="1" fill="rgba(0,0,0,0.15)"/>
  <rect x="0" y="550" width="1200" height="1" fill="rgba(0,0,0,0.15)"/>
  <rect x="0" y="552" width="1200" height="1" fill="rgba(0,0,0,0.15)"/>
  <rect x="0" y="554" width="1200" height="1" fill="rgba(0,0,0,0.15)"/>
  <rect x="0" y="556" width="1200" height="1" fill="rgba(0,0,0,0.15)"/>
  <rect x="0" y="558" width="1200" height="1" fill="rgba(0,0,0,0.15)"/>
  <rect x="0" y="560" width="1200" height="1" fill="rgba(0,0,0,0.15)"/>
  <rect x="0" y="562" width="1200" height="1" fill="rgba(0,0,0,0.15)"/>
  <rect x="0" y="564" width="1200" height="1" fill="rgba(0,0,0,0.15)"/>
  <rect x="0" y="566" width="1200" height="1" fill="rgba(0,0,0,0.15)"/>
  <rect x="0" y="568" width="1200" height="1" fill="rgba(0,0,0,0.15)"/>
  <rect x="0" y="570" width="1200" height="1" fill="rgba(0,0,0,0.15)"/>
  <rect x="0" y="572" width="1200" height="1" fill="rgba(0,0,0,0.15)"/>
  <rect x="0" y="574" width="1200" height="1" fill="rgba(0,0,0,0.15)"/>
  <rect x="0" y="576" width="1200" height="1" fill="rgba(0,0,0,0.15)"/>
  <rect x="0" y="578" width="1200" height="1" fill="rgba(0,0,0,0.15)"/>
  <rect x="0" y="580" width="1200" height="1" fill="rgba(0,0,0,0.15)"/>
  <rect x="0" y="582" width="1200" height="1" fill="rgba(0,0,0,0.15)"/>
  <rect x="0" y="584" width="1200" height="1" fill="rgba(0,0,0,0.15)"/>
  <rect x="0" y="586" width="1200" height="1" fill="rgba(0,0,0,0.15)"/>
  <rect x="0" y="588" width="1200" height="1" fill="rgba(0,0,0,0.15)"/>
  <rect x="0" y="590" width="1200" height="1" fill="rgba(0,0,0,0.15)"/>
  <rect x="0" y="592" width="1200" height="1" fill="rgba(0,0,0,0.15)"/>
  <rect x="0" y="594" width="1200" height="1" fill="rgba(0,0,0,0.15)"/>
  <rect x="0" y="596" width="1200" height="1" fill="rgba(0,0,0,0.15)"/>
  <rect x="0" y="598" width="1200" height="1" fill="rgba(0,0,0,0.15)"/>
  <rect x="0" y="600" width="1200" height="1" fill="rgba(0,0,0,0.15)"/>
  <rect x="0" y="602" width="1200" height="1" fill="rgba(0,0,0,0.15)"/>
  <rect x="0" y="604" width="1200" height="1" fill="rgba(0,0,0,0.15)"/>
  <rect x="0" y="606" width="1200" height="1" fill="rgba(0,0,0,0.15)"/>
  <rect x="0" y="608" width="1200" height="1" fill="rgba(0,0,0,0.15)"/>
  <rect x="0" y="610" width="1200" height="1" fill="rgba(0,0,0,0.15)"/>
  <rect x="0" y="612" width="1200" height="1" fill="rgba(0,0,0,0.15)"/>
  <rect x="0" y="614" width="1200" height="1" fill="rgba(0,0,0,0.15)"/>
  <rect x="0" y="616" width="1200" height="1" fill="rgba(0,0,0,0.15)"/>
  <rect x="0" y="618" width="1200" height="1" fill="rgba(0,0,0,0.15)"/>
  <rect x="0" y="620" width="1200" height="1" fill="rgba(0,0,0,0.15)"/>
  <rect x="0" y="622" width="1200" height="1" fill="rgba(0,0,0,0.15)"/>
  <rect x="0" y="624" width="1200" height="1" fill="rgba(0,0,0,0.15)"/>
  <rect x="0" y="626" width="1200" height="1" fill="rgba(0,0,0,0.15)"/>
  <rect x="0" y="628" width="1200" height="1" fill="rgba(0,0,0,0.15)"/>
  
  <!-- Main text -->
  <text x="600" y="220" text-anchor="middle" font-family="Comic Sans MS, Comic Sans, cursive, sans-serif" font-size="72" font-weight="bold" fill="#00ff00" filter="url(#glow)">&gt; what day is it?_</text>
  
  <!-- Subtitle -->
  <text x="600" y="320" text-anchor="middle" font-family="Comic Sans MS, Comic Sans, cursive, sans-serif" font-size="28" fill="#00ff00" opacity="0.8">the world's first decentralized day-of-week oracle</text>
  
  <!-- Day tokens -->
  <text x="600" y="420" text-anchor="middle" font-family="Comic Sans MS, Comic Sans, cursive, sans-serif" font-size="24" fill="#00ff00" opacity="0.6">MON · TUE · WED · THU · FRI · SAT · SUN</text>
  
  <!-- Bottom text -->
  <text x="600" y="520" text-anchor="middle" font-family="Comic Sans MS, Comic Sans, cursive, sans-serif" font-size="20" fill="yellow" opacity="0.9">the market decides.</text>
  
  <!-- URL -->
  <text x="600" y="580" text-anchor="middle" font-family="Comic Sans MS, Comic Sans, cursive, sans-serif" font-size="18" fill="#00ff00" opacity="0.4">whatday.xyz</text>
</svg>